<?xml version="1.0" encoding="utf-8"?>
<svg viewBox="-20.4513 -255.9712 724.7759 695.8018" width="724.776" height="695.802" xmlns="http://www.w3.org/2000/svg">
  <g transform="matrix(1, 0, 0, 1, -109.61049652099604, -363.1875915527343)">
    <path d=" M 450.02 236.99 A 0.36 0.35 -58.9 0 0 449.67 237.08 Q 356.78 326.15 280.95 398.45 Q 212.61 463.62 155.88 518.40 A 1.03 1.03 0.0 0 1 154.45 518.41 C 131.40 496.57 109.81 475.95 89.55 455.43 A 1.35 1.35 0.0 0 1 89.55 453.53 Q 101.24 441.79 113.16 430.41 Q 184.15 362.61 258.10 292.11 Q 300.11 252.06 338.33 216.46 Q 345.42 209.86 352.79 202.80 Q 390.10 167.01 436.00 122.89 Q 443.91 115.28 452.70 107.39 A 0.67 0.67 0.0 0 1 453.60 107.39 Q 459.49 112.76 464.85 117.88 Q 565.41 214.20 664.30 310.65 Q 668.12 314.37 671.71 318.56 A 0.99 0.98 -46.5 0 1 671.74 319.81 Q 670.09 321.88 667.92 323.92 Q 637.32 352.66 604.54 383.72 A 1.54 1.54 0.0 0 1 602.41 383.71 Q 554.58 337.54 507.67 291.75 Q 495.33 279.71 481.84 266.64 Q 464.50 249.85 450.97 237.49 Q 450.58 237.13 450.02 236.99 Z" style="fill: #64748B;"/>
    <path d=" M 401.13 474.85 Q 391.80 465.96 382.87 456.98 A 0.83 0.82 45.7 0 1 382.88 455.80 Q 417.74 421.92 453.29 389.02 A 0.97 0.96 -47.5 0 1 454.53 388.96 Q 456.36 390.33 457.91 391.82 Q 487.77 420.53 522.65 454.57 Q 523.75 455.64 522.74 456.79 Q 520.30 459.60 517.03 462.77 Q 486.90 492.01 453.73 523.61 A 1.23 1.23 0.0 0 1 452.02 523.60 Q 426.48 498.98 401.13 474.85 Z" style="fill: #64748B;"/>
    <path d=" M 452.42 671.06 A 0.86 0.85 43.9 0 0 453.56 671.04 Q 466.81 658.82 480.41 645.87 Q 629.35 503.97 736.28 401.52 Q 741.48 396.54 747.84 391.00 A 1.46 1.45 46.4 0 1 749.80 391.05 L 813.29 451.93 Q 814.57 453.16 813.31 454.41 Q 806.60 461.04 799.42 467.92 Q 734.69 529.89 671.62 591.22 Q 664.41 598.23 657.22 605.10 Q 591.53 667.88 530.02 726.27 Q 482.53 771.36 448.79 802.73 A 1.08 1.08 0.0 0 1 447.30 802.71 Q 389.38 746.33 331.46 690.17 Q 323.95 682.89 317.18 676.19 Q 287.83 647.13 258.42 619.33 Q 246.07 607.66 233.41 595.28 A 0.75 0.74 -47.6 0 1 233.37 594.25 Q 236.03 591.19 238.76 588.51 Q 265.31 562.52 297.36 532.67 Q 299.81 530.39 302.31 528.26 A 1.67 1.67 0.0 0 1 304.47 528.27 Q 309.53 532.61 313.50 536.42 Q 381.92 602.26 448.10 667.09 Q 450.23 669.17 452.42 671.06 Z" style="fill: #64748B;"/>
  </g>
</svg>
